<svg xmlns="http://www.w3.org/2000/svg" viewBox="0 0 190.97 164.17"><title>circle-graph</title><path d="M241.58,398.57l-1.08-1.13-1.06-1.15-1-1.17-1-1.19-1-1.21-1-1.22-1-1.24-.93-1.26-.91-1.27c-.3-.43-.6-.85-.89-1.28s-.58-.87-.86-1.31l-.84-1.32c-.28-.44-.55-.88-.82-1.33l-.8-1.35c-.26-.45-.51-.91-.77-1.36l-.75-1.37c-.24-.46-.49-.92-.73-1.38s-.47-.93-.7-1.4-.45-.94-.67-1.41-.44-.95-.65-1.42-.42-1-.63-1.43-.4-1-.59-1.45-.39-1-.57-1.45-.37-1-.55-1.46-.35-1-.52-1.47-.33-1-.49-1.48-.32-1-.47-1.49-.3-1-.45-1.5-.28-1-.41-1.51-.26-1-.39-1.51-.25-1-.37-1.52L213,357.83c.13.57.25,1.06.39,1.62s.27,1.05.42,1.61.29,1,.45,1.61.3,1,.47,1.6.32,1,.5,1.59.34,1,.53,1.58.36,1,.56,1.57.38,1,.58,1.56.39,1,.61,1.55.41,1,.64,1.54.43,1,.66,1.53.45,1,.69,1.52.46,1,.72,1.5.48,1,.74,1.49.5,1,.77,1.48.51,1,.8,1.46.53.95.82,1.45l.85,1.44L225,387l.9,1.41.92,1.39.94,1.37,1,1.36,1,1.34,1,1.32,1,1.3,1.06,1.29,1.08,1.27,1.1,1.25,1.13,1.23,1.15,1.21,1.17,1.19,4.19-4.19Z" transform="translate(-210.52 -240.87)" style="fill:#cf222a"/><path d="M401.47,334.69c0-.58,0-1.09,0-1.67s0-1.09-.07-1.66-.06-1.08-.1-1.66-.08-1.08-.13-1.66-.1-1.08-.16-1.66-.12-1.08-.19-1.66-.14-1.08-.22-1.65-.16-1.08-.25-1.65-.17-1.07-.28-1.64-.19-1.07-.3-1.64-.21-1.07-.33-1.63-.23-1.06-.36-1.63-.25-1.06-.39-1.62-.27-1.05-.42-1.61-.29-1-.45-1.61-.3-1-.47-1.6-.32-1-.5-1.59-.34-1-.53-1.58-.36-1-.56-1.57-.38-1-.58-1.56-.39-1-.61-1.55-.41-1-.64-1.54-.43-1-.66-1.53-.45-1-.69-1.52-.46-1-.72-1.5-.48-1-.74-1.49-.5-1-.77-1.48-.51-1-.8-1.46-.53-.95-.82-1.45l-.85-1.44-.87-1.42-.9-1.41-.92-1.39-.94-1.37-1-1.36-1-1.34-1-1.32-1-1.3L379.14,275l-1.08-1.27-1.1-1.25-1.13-1.23L374.68,270l-1.17-1.19-1.19-1.17-1.21-1.15-1.23-1.13-1.25-1.1-1.27-1.08-1.29-1.06-1.3-1-1.32-1-1.34-1-1.36-1-1.37-.94-1.39-.92-1.41-.9-1.42-.87-1.44-.85-1.45-.82-1.46-.8-1.48-.77-1.49-.74-1.5-.72-1.52-.69-1.53-.66-1.54-.64-1.55-.61-1.56-.58-1.57-.56-1.58-.53-1.59-.5-1.6-.47-1.61-.45-1.61-.42-1.62-.39-1.63-.36-1.63-.33-1.64-.3-1.64-.28-1.65-.25-1.65-.22L316,241.4l-1.66-.16-1.66-.13L311,241l-1.66-.07-1.67,0h-3.33l-1.67,0L301,241l-1.66.1-1.66.13-1.66.16-1.66.19-1.65.22-1.65.25-1.64.28-1.64.3-1.63.33-1.63.36-1.62.39-1.61.42-1.61.45-1.6.47-1.59.5-1.58.53-1.57.56-1.56.58-1.55.61-1.54.64-1.53.66-1.52.69-1.5.72-1.49.74-1.48.77-1.46.8-1.45.82-1.44.85-1.42.87-1.41.9-1.39.92-1.37.94-1.36,1-1.34,1-1.32,1-1.3,1-1.29,1.06-1.27,1.08-1.25,1.1-1.23,1.13-1.21,1.15-1.19,1.17L237.32,270l-1.15,1.21L235,272.46l-1.1,1.25L232.86,275l-1.06,1.29-1,1.3-1,1.32-1,1.34-1,1.36-.94,1.37-.92,1.39-.9,1.41-.87,1.42-.85,1.44c-.29.5-.54.94-.82,1.45s-.52,1-.8,1.46-.51,1-.77,1.48-.49,1-.74,1.49-.47,1-.72,1.5-.46,1-.69,1.52-.44,1-.66,1.53-.42,1-.64,1.54-.4,1-.61,1.55-.39,1-.58,1.56-.37,1-.56,1.57-.35,1-.53,1.58-.33,1-.5,1.59-.31,1-.47,1.6-.3,1-.45,1.61-.28,1.05-.42,1.61-.26,1.06-.39,1.62-.24,1.06-.36,1.63-.22,1.06-.33,1.63-.2,1.07-.3,1.64-.18,1.07-.28,1.64-.17,1.07-.25,1.65-.15,1.08-.22,1.65-.13,1.08-.19,1.66-.11,1.08-.16,1.66-.09,1.08-.13,1.66-.07,1.08-.1,1.66-.05,1.09-.07,1.66,0,1.09,0,1.67,0,1.09,0,1.67,0,1.09,0,1.67,0,1.09,0,1.67,0,1.09.07,1.66.06,1.08.1,1.66.08,1.08.13,1.66.1,1.08.16,1.66.12,1.08.19,1.66.14,1.08.22,1.65.16,1.08.25,1.65.17,1.07.28,1.64.19,1.07.3,1.64.21,1.07.33,1.63.23,1.06.36,1.63l5.75-1.33c-.12-.51-.22-1-.33-1.53s-.21-1-.31-1.53-.2-1-.29-1.54-.17-1-.26-1.54-.15-1-.23-1.55-.14-1-.2-1.55-.12-1-.18-1.55-.1-1-.14-1.56-.09-1-.12-1.56-.07-1-.1-1.56,0-1-.06-1.56,0-1,0-1.56,0-1,0-1.56,0-1,0-1.56,0-1,0-1.56,0-1,.06-1.56.06-1,.1-1.56.08-1,.12-1.56.09-1,.14-1.56.11-1,.18-1.55.13-1,.2-1.55.15-1,.23-1.55.17-1,.26-1.54.19-1,.29-1.54.2-1,.31-1.53.22-1,.33-1.53.24-1,.37-1.52.26-1,.39-1.51.27-1,.41-1.51.29-1,.45-1.5.31-1,.47-1.49.32-1,.49-1.48.34-1,.52-1.47.37-1,.55-1.46.38-1,.57-1.45.39-1,.59-1.45.41-1,.63-1.43.43-.95.65-1.42.44-.94.67-1.41.46-.94.7-1.4.48-.92.73-1.38l.75-1.37c.25-.46.51-.91.77-1.36l.8-1.35c.27-.45.54-.89.82-1.33l.84-1.32c.28-.44.57-.87.86-1.31s.59-.86.89-1.28l.91-1.27.93-1.26,1-1.24,1-1.22,1-1.21,1-1.19,1-1.17,1.06-1.15,1.08-1.13,1.09-1.12,1.12-1.09,1.13-1.08,1.15-1.06,1.17-1,1.19-1,1.21-1,1.22-1,1.24-1,1.26-.93,1.27-.91,1.28-.89,1.31-.86,1.32-.84,1.33-.82,1.35-.8,1.36-.77,1.37-.75,1.38-.73,1.4-.7,1.41-.67,1.42-.65,1.43-.63,1.45-.59,1.45-.57,1.46-.55,1.47-.52,1.48-.49,1.49-.47,1.5-.45,1.51-.41,1.51-.39,1.52-.37,1.53-.33,1.53-.31,1.54-.29,1.54-.26,1.55-.23,1.55-.2,1.55-.18,1.56-.14,1.56-.12,1.56-.1,1.56-.06,1.56,0,1.56,0,1.56,0,1.56,0,1.56.06,1.56.1,1.56.12,1.56.14,1.55.18,1.55.2,1.55.23,1.54.26,1.54.29,1.53.31,1.53.33,1.52.37,1.51.39,1.51.41,1.5.45,1.49.47,1.48.49,1.47.52,1.46.55,1.45.57,1.45.59,1.43.63,1.42.65,1.41.67,1.4.7,1.38.73,1.37.75,1.36.77,1.35.8,1.33.82,1.32.84,1.31.86,1.28.89,1.27.91,1.26.93,1.24,1,1.22,1,1.21,1,1.19,1,1.17,1,1.15,1.06,1.13,1.08,1.12,1.09,1.09,1.12,1.08,1.13,1.06,1.15,1,1.17,1,1.19,1,1.21,1,1.22,1,1.24.93,1.26.91,1.27c.3.43.6.85.89,1.28s.58.87.86,1.31l.84,1.32c.28.44.55.88.82,1.33l.8,1.35c.26.45.51.91.77,1.36l.75,1.37c.24.46.49.92.73,1.38s.47.93.7,1.4.45.94.67,1.41.44.94.65,1.42.42,1,.63,1.43.4,1,.59,1.45.39,1,.57,1.45.37,1,.55,1.46.35,1,.52,1.47.33,1,.49,1.48.32,1,.47,1.49.3,1,.45,1.5.28,1,.41,1.51.26,1,.39,1.51.25,1,.37,1.52.22,1,.33,1.53.21,1,.31,1.53.2,1,.29,1.54.17,1,.26,1.54.15,1,.23,1.55.14,1,.2,1.55.12,1,.18,1.55.1,1,.14,1.56.09,1,.12,1.56.07,1,.1,1.56,0,1,.06,1.56,0,1,0,1.56,0,1,0,1.56,0,1,0,1.56,0,1,0,1.56,0,1-.06,1.56-.06,1-.1,1.56-.08,1-.12,1.56-.09,1-.14,1.56-.11,1-.18,1.55-.13,1-.2,1.55-.15,1-.23,1.55-.17,1-.26,1.54-.19,1-.29,1.54-.2,1-.31,1.53-.22,1-.33,1.53-.24,1-.37,1.52-.26,1-.39,1.51-.27,1-.41,1.51-.29,1-.45,1.5-.31,1-.47,1.49-.32,1-.49,1.48-.34,1-.52,1.47-.37,1-.55,1.46-.38,1-.57,1.45-.39,1-.59,1.45-.41,1-.63,1.43-.43.95-.65,1.42-.44.94-.67,1.41-.46.94-.7,1.4-.48.92-.73,1.38l-.75,1.37c-.25.46-.51.91-.77,1.36l-.8,1.35c-.27.45-.54.89-.82,1.33l-.84,1.32c-.28.44-.57.87-.86,1.31s-.59.86-.89,1.28l-.91,1.27-.93,1.26-1,1.24-1,1.22-1,1.21-1,1.19-1,1.17-1.06,1.15-1.08,1.13-1.09,1.12-1.12,1.09,4.12,4.26,1.19-1.17,1.17-1.19,1.15-1.21,1.13-1.23,1.1-1.25,1.08-1.27,1.06-1.29,1-1.3,1-1.32,1-1.34,1-1.36.94-1.37.92-1.39L387,387l.87-1.42.85-1.44c.29-.5.54-.94.82-1.45s.52-1,.8-1.46.51-1,.77-1.48.49-1,.74-1.49.47-1,.72-1.5.46-1,.69-1.52.44-1,.66-1.53.42-1,.64-1.54.4-1,.61-1.55.39-1,.58-1.56.37-1,.56-1.57.35-1,.53-1.58.33-1,.5-1.59.31-1,.47-1.6.3-1,.45-1.61.28-1.05.42-1.61.26-1.06.39-1.62.24-1.06.36-1.63.22-1.06.33-1.63.2-1.07.3-1.64.18-1.07.28-1.64.17-1.07.25-1.65.15-1.08.22-1.65.13-1.08.19-1.66.11-1.08.16-1.66.09-1.08.13-1.66.07-1.08.1-1.66.05-1.09.07-1.66,0-1.09,0-1.67,0-1.09,0-1.67S401.48,335.27,401.47,334.69Z" transform="translate(-210.52 -240.87)" style="fill:#403d39"/><path d="M275,364.65H269.4v-57.6l-15.72,9.78-2.59-4.12,19.07-11.79H275Z" transform="translate(-210.52 -240.87)" style="fill:#231f20"/><path d="M320.86,316.63c0,12.65-7.09,20.61-28.46,43.13h30.19l-.77,4.89H285.88V360c23.67-25.21,29.23-31.82,29.23-43,0-7.57-4.79-12.36-12.08-12.36-6.13,0-10.35,2.59-14.18,7.28L284.92,309c5.08-6.13,10.73-9.1,18.4-9.1C314.25,299.86,320.86,307.05,320.86,316.63Z" transform="translate(-210.52 -240.87)" style="fill:#231f20"/><path d="M342.54,313c0,5.53-3.3,9.11-8.33,9.11s-8.38-3.52-8.38-9.05,3.35-9.11,8.38-9.11S342.54,307.51,342.54,313Zm-13.69.06c0,3.46,1.4,6.71,5.36,6.71s5.31-3.19,5.31-6.76-1.34-6.71-5.31-6.71S328.85,309.52,328.85,313.09ZM359.36,304,333.44,343.1l-2.35-1.56L357,302.48Zm4.86,29.22c0,5.59-3.3,9.16-8.38,9.16-4.86,0-8.33-3.52-8.33-9.05s3.3-9.11,8.33-9.11S364.23,327.68,364.23,333.21Zm-13.69.11c0,3.46,1.4,6.71,5.31,6.71s5.36-3.18,5.36-6.82c0-3.41-1.34-6.65-5.36-6.65S350.54,329.75,350.54,333.32Z" transform="translate(-210.52 -240.87)" style="fill:#231f20"/></svg>