<svg xmlns="http://www.w3.org/2000/svg" viewBox="0 0 661.44 237.33">
  <title>Connections Church logo-red</title>
  <g>
    <g>
      <path d="M66.68,262s49.16-28.53,58.64-40.2,13.22-33,13.22-33l14.09,52.08Z" transform="translate(-66.68 -179.68)" style="fill: #626364"/>
      <path d="M264.37,200.33s-59.75,9.64-69.93,5.51c-13-5.27-27.53-26.16-27.53-26.16L168,238Z" transform="translate(-66.68 -179.68)" style="fill: #cf222a"/>
      <path d="M291.9,219.88S216.7,263,211.78,276.32c-6.61,17.9-12.11,97.47-12.11,97.47L171,251.54Z" transform="translate(-66.68 -179.68)" style="fill: #626364"/>
      <path d="M73.56,286S107.7,284,122,290.64C135.55,296.88,175.16,417,175.16,417L154.51,255.12Z" transform="translate(-66.68 -179.68)" style="fill: #cf222a"/>
    </g>
    <g>
      <path d="M254.57,288.47m0,0c0,13.94,6.21,18.42,15,18.42a27.28,27.28,0,0,0,7.3-.91c1.26-.33,2.27-.79,2.88.46l1.77,5.55c.25.87,0,1.6-1.25,2.15-2.72,1.25-8,1.86-11.63,1.86-15.52,0-25.48-11.11-25.48-27.54s10-27.54,25.48-27.54c3.62,0,8.91.61,11.63,1.86,1.21.55,1.5,1.28,1.25,2.15l-1.77,5.55c-.61,1.25-1.62.79-2.88.46a27.28,27.28,0,0,0-7.3-.91c-8.83,0-15,4.48-15,18.42m0,0" transform="translate(-66.68 -179.68)" style="fill: #cf222a"/>
      <path d="M491.21,288.47m0,0c0,13.94,6.21,18.42,15,18.42a27.29,27.29,0,0,0,7.3-.91c1.26-.33,2.27-.79,2.88.46L518.2,312c.25.87,0,1.6-1.25,2.15-2.72,1.25-8,1.86-11.63,1.86-15.52,0-25.48-11.11-25.48-27.54s10-27.54,25.48-27.54c3.62,0,8.91.61,11.63,1.86,1.21.55,1.5,1.28,1.25,2.15l-1.77,5.55c-.61,1.25-1.62.79-2.88.46a27.29,27.29,0,0,0-7.3-.91c-8.83,0-15,4.48-15,18.42m0,0" transform="translate(-66.68 -179.68)" style="fill: #cf222a"/>
      <path d="M310.06,316c-14.56,0-23.29-9.12-23.29-27.28,0-17.92,8.16-27.76,23.29-27.76,14.24,0,23.19,9.2,23.19,27.76C333.26,306.69,324.53,316,310.06,316Zm-.15-45.91c-9.2,0-11.46,8.59-11.46,18.51,0,11.77,2.83,18.28,11.46,18.28,9.06,0,11.66-7.11,11.66-18.28C321.58,278.2,319.2,270.06,309.92,270.06Z" transform="translate(-66.68 -179.68)" style="fill: #cf222a"/>
      <path d="M612.81,316c-14.56,0-23.29-9.12-23.29-27.28,0-17.92,8.16-27.76,23.29-27.76,14.24,0,23.19,9.2,23.19,27.76C636,306.69,627.28,316,612.81,316Zm-.15-45.91c-9.2,0-11.46,8.59-11.46,18.51,0,11.77,2.83,18.28,11.46,18.28,9.06,0,11.66-7.11,11.66-18.28C624.33,278.2,621.95,270.06,612.67,270.06Z" transform="translate(-66.68 -179.68)" style="fill: #cf222a"/>
      <path d="M401.47,281.39V314.2c0,1-.28,1.61-1.49,1.61h-6.53c-1.21,0-1.58-.56-1.58-1.61V263.06c0-1,.37-1.54,1.58-1.54h5.62c.8,0,1.52-.07,1.95,1l20.77,33.4V263.13c0-1,.27-1.61,1.48-1.61h6.53c1.21,0,1.58.56,1.58,1.61v51.13c0,1-.37,1.54-1.58,1.54h-5.61c-.8,0-1.52.07-1.95-1Z" transform="translate(-66.68 -179.68)" style="fill: #cf222a"/>
      <path d="M654.47,281.39V314.2c0,1-.27,1.61-1.48,1.61h-6.53c-1.21,0-1.58-.56-1.58-1.61V263.06c0-1,.37-1.54,1.58-1.54h5.61c.8,0,1.52-.07,1.95,1l20.77,33.4V263.13c0-1,.27-1.61,1.48-1.61h6.53c1.21,0,1.58.56,1.58,1.61v51.13c0,1-.37,1.54-1.58,1.54h-5.61c-.8,0-1.52.07-1.95-1Z" transform="translate(-66.68 -179.68)" style="fill: #cf222a"/>
      <path d="M351.78,281.39V314.2c0,1-.28,1.61-1.49,1.61h-6.53c-1.21,0-1.58-.56-1.58-1.61V263.06c0-1,.37-1.54,1.58-1.54h5.62c.8,0,1.52-.07,1.95,1l20.77,33.4V263.13c0-1,.28-1.61,1.49-1.61h6.53c1.21,0,1.58.56,1.58,1.61v51.13c0,1-.37,1.54-1.58,1.54H374.5c-.8,0-1.52.07-1.95-1Z" transform="translate(-66.68 -179.68)" style="fill: #cf222a"/>
      <path d="M471.06,315.58H443.44c-1.29,0-1.82-.53-1.82-1.65V263.27a1.64,1.64,0,0,1,1.82-1.85h27.24c1.29,0,2,.32,2,1.44v6.52c0,1.12-.76,1.25-2,1.25H452.59v11.79h14.72c1.29,0,1.66.41,1.66,1.53v6.66c0,1.12-.37,1.47-1.66,1.47H452.59v14.08h18.47c1.29,0,1.67.41,1.67,1.53v6.38C472.72,315.19,472.35,315.58,471.06,315.58Z" transform="translate(-66.68 -179.68)" style="fill: #cf222a"/>
      <path d="M561.07,270.5H549v43.67c0,1.12-.48,1.4-1.76,1.4H539.9c-1.28,0-1.91-.28-1.91-1.4V270.5H525.45c-1.29,0-1.55-.3-1.55-1.42V263c0-1.12.26-1.55,1.55-1.55h35.62c1.28,0,1.65.43,1.65,1.55v6.12C562.72,270.21,562.35,270.5,561.07,270.5Z" transform="translate(-66.68 -179.68)" style="fill: #cf222a"/>
      <path d="M579.34,315.58h-8.47c-1.29,0-1.45-.48-1.45-1.6V263c0-1.12.16-1.55,1.45-1.55h8.47c1.29,0,1.42.43,1.42,1.55v51C580.76,315.09,580.63,315.58,579.34,315.58Z" transform="translate(-66.68 -179.68)" style="fill: #cf222a"/>
      <path d="M708.71,315.73a49.64,49.64,0,0,1-15.07-2.17c-1.21-.39-1.41-.71-1.14-1.75l1.55-5.68c.28-1.12,1-1.18,2.27-.83a36.53,36.53,0,0,0,10.22,1.75c7.12,0,10-3.1,10-7.43,0-4.75-2.89-6-9.71-8.57l-3.3-1.34c-5.58-2-9.91-6-9.91-13.11,0-9,6.09-15.66,18.84-15.66a38.27,38.27,0,0,1,11.82,2c1.21.4,1.86.93,1.55,2.17l-1.34,4.65c-.52,1.14-.68,1.68-2.07,1.24a35.21,35.21,0,0,0-9.6-1.55c-5.68,0-8.36,2-8.36,6.12,0,3.79,3.1,5,7.84,7l6,2.46c6.41,2.72,9.79,6.83,9.79,14.26C728.12,307.78,721.16,315.73,708.71,315.73Z" transform="translate(-66.68 -179.68)" style="fill: #cf222a"/>
    </g>
    <g>
      <path d="M339,353c0-9.15,6.14-14.41,14.68-14.41a18.33,18.33,0,0,1,6.88,1.2c1,.42.9.74.79,1.38l-.72,1.74a1,1,0,0,1-1.38.43,16.09,16.09,0,0,0-5-.85c-5.78,0-9.72,4.44-9.72,10.52s3.94,10.51,9.72,10.51a16.09,16.09,0,0,0,5-.85,1,1,0,0,1,1.38.42l.72,1.74c.1.64.17,1-.79,1.38a18.33,18.33,0,0,1-6.88,1.2C345.17,367.44,339,362.18,339,353Z" transform="translate(-66.68 -179.68)" style="fill: #626364"/>
      <path d="M397.42,354.91v11.63c0,.47,0,.85-.76.85H393c-.73,0-.93-.38-.93-.85V339.81c0-.51.19-.85.93-.85h3.65c.73,0,.76.34.76.85v10.8h14.42v-10.8c0-.51,0-.85.76-.85h3.65c.73,0,.92.34.92.85v26.73c0,.47-.19.85-.92.85H412.6c-.73,0-.76-.38-.76-.85V354.91Z" transform="translate(-66.68 -179.68)" style="fill: #626364"/>
      <path d="M557.37,353c0-9.15,6.14-14.41,14.68-14.41a18.33,18.33,0,0,1,6.88,1.2c1,.42.9.74.79,1.38l-.72,1.74a1,1,0,0,1-1.38.43,16.08,16.08,0,0,0-5-.85c-5.78,0-9.72,4.44-9.72,10.52s3.94,10.51,9.72,10.51a16.08,16.08,0,0,0,5-.85,1,1,0,0,1,1.38.42l.72,1.74c.1.64.17,1-.79,1.38a18.33,18.33,0,0,1-6.88,1.2C563.51,367.44,557.37,362.18,557.37,353Z" transform="translate(-66.68 -179.68)" style="fill: #626364"/>
      <path d="M615.76,354.91v11.63c0,.47,0,.85-.76.85h-3.65c-.73,0-.93-.38-.93-.85V339.81c0-.51.19-.85.93-.85H615c.73,0,.76.34.76.85v10.8h14.42v-10.8c0-.51,0-.85.76-.85h3.65c.73,0,.92.34.92.85v26.73c0,.47-.19.85-.92.85h-3.65c-.73,0-.76-.38-.76-.85V354.91Z" transform="translate(-66.68 -179.68)" style="fill: #626364"/>
      <path d="M461.65,367.39c-10.87,0-12.67-7.27-12.67-12.46V339.8c0-.51.21-.84,1-.84h3.58c.75,0,.89.34.89.84v16.09c0,4.89,2.62,7.63,7.24,7.63,4.33,0,7.24-2.74,7.24-7.63V339.8c0-.51.15-.84.89-.84h3.58c.75,0,1,.34,1,.84v15.13C474.32,360.12,472.52,367.39,461.65,367.39Z" transform="translate(-66.68 -179.68)" style="fill: #626364"/>
      <path d="M529.73,366.34l-8.55-10.44c5.31-2.3,6.73-5.46,6.73-8.55,0-2.93-2.3-8.39-10.69-8.39h-9.66c-.74,0-1,.34-1,.85v26.69c0,.47.3.85,1,.85h3.25c.74,0,1-.38,1-.85v-23.8h3.72c5.23,0,7.13,2.15,7.13,5.34,0,3.57-4.47,5.48-8.39,6.4-.4.21-.54.2-.23.52l9.81,11.71a1.7,1.7,0,0,0,1.5.72h4.12C530,367.38,530.37,367.14,529.73,366.34Z" transform="translate(-66.68 -179.68)" style="fill: #626364"/>
    </g>
  </g>
</svg>
