<svg xmlns="http://www.w3.org/2000/svg" xmlns:xlink="http://www.w3.org/1999/xlink" viewBox="0 0 111.22 87.07">
  <defs>
    <radialGradient id="a" cx="268.9" cy="397.67" r="14.72" gradientTransform="matrix(1, 0.02, -0.01, 0.32, -247.24, -98.05)" gradientUnits="userSpaceOnUse">
      <stop offset="0.24" stop-color="#b6b9d3"/>
      <stop offset="1" stop-color="#fff" stop-opacity="0"/>
    </radialGradient>
  </defs>
  <title>HereForGood_logo</title>
  <ellipse cx="21.18" cy="32.95" rx="14.43" ry="4.57" style="fill: url(#a)"/>
  <g>
    <path d="M268.46,439.54h-10.8c-5.17,0-7.28-2.23-7.28-7.71v-5.36c0-5.48,2.11-7.71,7.28-7.71h9.89c5,0,7.57,1.94,7.57,5.76v1.09H271.9v-.38c0-3.24-.6-3.54-7.18-3.54h-6.79c-2.92,0-4.16,1.13-4.16,3.78v7.36c0,2.65,1.24,3.79,4.16,3.79h10.24c2.69,0,3.84-1,3.84-3.24v-1.59H262.1v-2.93h13.3v3.09C275.39,437.48,273.51,439.54,268.46,439.54Z" transform="translate(-250.39 -352.46)" style="fill: #002d73"/>
    <path d="M297.1,439.54H286c-5.17,0-7.28-2.23-7.28-7.71v-5.36c0-5.48,2.11-7.71,7.28-7.71H297.1c5.17,0,7.28,2.23,7.28,7.71v5.36C304.37,437.3,302.27,439.54,297.1,439.54Zm-10.88-17.85c-2.92,0-4.16,1.13-4.16,3.78v7.36c0,2.65,1.24,3.79,4.16,3.79h10.61c2.92,0,4.16-1.13,4.16-3.79v-7.36c0-2.65-1.24-3.78-4.16-3.78Z" transform="translate(-250.39 -352.46)" style="fill: #002d73"/>
    <path d="M326.09,439.54H314.95c-5.17,0-7.28-2.23-7.28-7.71v-5.36c0-5.48,2.11-7.71,7.28-7.71h11.14c5.17,0,7.28,2.23,7.28,7.71v5.36C333.37,437.3,331.26,439.54,326.09,439.54Zm-10.88-17.85c-2.92,0-4.16,1.13-4.16,3.78v7.36c0,2.65,1.24,3.79,4.16,3.79h10.61c2.92,0,4.16-1.13,4.16-3.79v-7.36c0-2.65-1.24-3.78-4.16-3.78Z" transform="translate(-250.39 -352.46)" style="fill: #002d73"/>
    <path d="M352.89,439.32H337V419h16c6.7,0,8.64,2.28,8.64,10.17C361.61,436.85,359.49,439.32,352.89,439.32Zm-12.55-2.93h12.9c2.92,0,5-.44,5-6.19v-2c0-5.36-1.47-6.3-4.56-6.3H340.34Z" transform="translate(-250.39 -352.46)" style="fill: #002d73"/>
  </g>
  <polygon points="35.21 33.86 62.92 0 68.5 6.82 46.38 33.86 35.21 33.86" style="fill: #002d73;opacity: 0.5"/>
  <polygon points="90.65 33.86 79.47 33.8 57.35 6.82 62.94 0 90.65 33.86" style="fill: #002d73;opacity: 0.5"/>
  <polygon points="53.19 33.86 80.91 0 86.49 6.82 64.44 33.86 53.19 33.86" style="fill: #8b2332;opacity: 0.5"/>
  <polygon points="108.63 33.86 97.45 33.86 75.33 6.82 80.92 0 108.63 33.86" style="fill: #8b2332;opacity: 0.5"/>
  <g>
    <path d="M274.42,413.13H271v-9H254.08v9h-3.41V392.78h3.41v8.41H271v-8.41h3.41Z" transform="translate(-250.39 -352.46)" style="fill: #8b2332"/>
    <path d="M297.91,413.13H277.8V392.78h20v2.93H281.22v5.49h15.93v2.93H281.22v6.08h16.69Z" transform="translate(-250.39 -352.46)" style="fill: #8b2332"/>
    <path d="M323.12,413.13h-3.25v-4.68c0-2.63-1-3.05-3.51-3.05H303.81v7.74h-3.41V392.78h16c5.86,0,6.93,2,6.93,5.93v1.6c0,2.4-1.17,3.38-2.45,3.8a3.51,3.51,0,0,1,2.21,3.64Zm-19.31-10.66h12.33c3.17,0,3.81-.94,3.81-2.46v-1.79c0-1.75-.42-2.51-4.46-2.51H303.81Z" transform="translate(-250.39 -352.46)" style="fill: #8b2332"/>
    <path d="M346.45,413.13h-20.1V392.78h20v2.93H329.76v5.49h15.93v2.93H329.76v6.08h16.69Z" transform="translate(-250.39 -352.46)" style="fill: #8b2332"/>
  </g>
  <g>
    <path d="M355.27,411.72v-3.25h1.36v3.25h3.57v1.4h-8.62v-4.83H353v3.43Z" transform="translate(-250.39 -352.46)" style="fill: #8b2332"/>
    <path d="M354.65,400.71H357c2.76,0,3.29.91,3.29,3.11s-.46,3.08-3.29,3.08h-2.32c-2.68,0-3.15-.77-3.15-3.08C351.5,401.72,351.88,400.71,354.65,400.71Zm0,4.8H357c1.71,0,1.87-.28,1.87-1.68s-.21-1.71-1.87-1.71h-2.32c-1.62,0-1.74.47-1.74,1.71C352.92,405.33,353.28,405.47,354.65,405.5Z" transform="translate(-250.39 -352.46)" style="fill: #8b2332"/>
    <path d="M357.34,397.6h2.85V399h-8.62v-3.73c0-1.6.63-2.21,2.59-2.21,1.28,0,2.21.06,2.43,1.29h0c.1-1,.74-1.24,2-1.24h1.61v1.4h-1.61c-.72,0-1.23.25-1.24.92Zm-1.41-1.85c0-1-.24-1.28-1.51-1.28s-1.44.18-1.44,1.19v1.95h2.94Z" transform="translate(-250.39 -352.46)" style="fill: #8b2332"/>
  </g>
  <path d="M280.83,386.48h0a1.57,1.57,0,0,1-1-.43l-.13-.1c-4.48-3.39-13.79-10.43-16.33-17.56-1.85-5.2-1.18-11.69,6.24-14.34a12.3,12.3,0,0,1,4.11-.76c6.46,0,9.12,6.07,9.78,7.93,2.54,7.13-.23,18.47-1.55,23.93l0,.17a1.32,1.32,0,0,1-.77,1.11A1,1,0,0,1,280.83,386.48Zm-5.21-15.67a7.33,7.33,0,1,0-9.36-4.44A7.33,7.33,0,0,0,275.62,370.81Z" transform="translate(-250.39 -352.46)" style="fill: #8b2332"/>
</svg>
