<svg xmlns="http://www.w3.org/2000/svg" xmlns:xlink="http://www.w3.org/1999/xlink" viewBox="0 0 408.94 43.87"><defs><linearGradient id="a" x1="52.35" y1="13.6" x2="108.87" y2="13.6" gradientUnits="userSpaceOnUse"><stop offset="0" stop-color="#1d386d"/><stop offset="1" stop-color="#cf212a"/></linearGradient></defs><title>timeline</title><g style="opacity:0.5"><path d="M486.53,403.78a2.88,2.88,0,1,1,0-5.77H880.46a2.88,2.88,0,1,1,0,5.77Z" transform="translate(-478.65 -386.8)" style="fill:#fff"/><path d="M880.47,398.16a2.73,2.73,0,0,1,0,5.47H486.53a2.73,2.73,0,1,1,0-5.47H880.47m0-.3H486.53a3,3,0,0,0,0,6.07H880.47a3,3,0,0,0,0-6.07Z" transform="translate(-478.65 -386.8)" style="fill:#fff"/></g><path d="M486,403.28a2.88,2.88,0,1,1,0-5.77H880a2.88,2.88,0,1,1,0,5.77Z" transform="translate(-478.65 -386.8)" style="fill:#ccc"/><path d="M880,397.66a2.73,2.73,0,0,1,0,5.47H486a2.73,2.73,0,1,1,0-5.47H880m0-.3H486a3,3,0,0,0,0,6.07H880a3,3,0,0,0,0-6.07Z" transform="translate(-478.65 -386.8)" style="fill:#7a7a7a"/><rect x="4.35" y="10.56" width="50.26" height="6.07" rx="3.03" ry="3.03" style="fill:#403d39"/><rect x="52.35" y="10.56" width="56.52" height="6.07" style="fill:url(#a)"/><circle cx="52.35" cy="13.6" r="4.65" style="fill:#1d386d"/><path d="M531,396.1a4.3,4.3,0,1,1-4.3,4.3,4.3,4.3,0,0,1,4.3-4.3m0-.7a5,5,0,1,0,5,5,5,5,0,0,0-5-5Z" transform="translate(-478.65 -386.8)" style="fill:#fff"/><circle cx="108.87" cy="13.6" r="4.65" style="fill:#cf222a"/><path d="M587.52,396.1a4.3,4.3,0,1,1-4.3,4.3,4.3,4.3,0,0,1,4.3-4.3m0-.7a5,5,0,1,0,5,5,5,5,0,0,0-5-5Z" transform="translate(-478.65 -386.8)" style="fill:#fff"/><line x1="271.02" y1="10.56" x2="271.02" y2="16.63" style="fill:none;stroke:#666;stroke-miterlimit:10;stroke-width:0.699999988079071px"/><line x1="137.69" y1="10.56" x2="137.69" y2="16.63" style="fill:none;stroke:#666;stroke-miterlimit:10;stroke-width:0.699999988079071px"/><circle cx="175.92" cy="41.14" r="2.72" style="fill:#1d386d"/><circle cx="175.92" cy="32.89" r="2.72" style="fill:#cf222a"/><path d="M668,419.77c0,1.58-.77,2.47-2,2.47s-2-.87-2-2.47.81-2.49,2-2.49S668,418.16,668,419.77Zm-3.47,0c0,1.44.62,2.11,1.51,2.11s1.52-.67,1.52-2.12-.6-2.12-1.52-2.12S664.52,418.32,664.52,419.78Z" transform="translate(-478.65 -386.8)"/><path d="M671.76,422.17h-.35l0-.65a1.33,1.33,0,0,1-1.2.73,1,1,0,0,1-1-1.12v-2.62h.41v2.58c0,.58.25.83.72.83a1.26,1.26,0,0,0,1.07-.75v-2.65h.41Z" transform="translate(-478.65 -386.8)"/><path d="M675,418.47l-.08.39a1.14,1.14,0,0,0-.32,0c-.51,0-.79.37-1,1.13v2.23h-.41v-3.66h.35l0,.82c.2-.6.53-.9,1-.9A1.4,1.4,0,0,1,675,418.47Z" transform="translate(-478.65 -386.8)"/><path d="M680.85,417.77l-.25.26a1.61,1.61,0,0,0-1.07-.38c-.76,0-1.56.58-1.56,2.1s.6,2.14,1.54,2.14a2,2,0,0,0,1-.25v-1.7h-.94l0-.35h1.4v2.27a2.81,2.81,0,0,1-1.44.39c-1.17,0-2-.83-2-2.49s1-2.46,2-2.46A1.92,1.92,0,0,1,680.85,417.77Z" transform="translate(-478.65 -386.8)"/><path d="M684.94,420.33c0,1.18-.59,1.92-1.55,1.92s-1.55-.73-1.55-1.91.6-1.91,1.55-1.91S684.94,419.13,684.94,420.33Zm-2.67,0c0,1,.41,1.56,1.11,1.56s1.13-.52,1.13-1.58-.41-1.55-1.12-1.55S682.27,419.29,682.27,420.34Z" transform="translate(-478.65 -386.8)"/><path d="M688.72,422l-.09.29a.65.65,0,0,1-.57-.61,1.29,1.29,0,0,1-1.14.61,1,1,0,0,1-1.13-1.09c0-.77.58-1.18,1.52-1.18h.7v-.36c0-.58-.24-.84-.85-.84a3,3,0,0,0-1,.21l-.1-.31a3.06,3.06,0,0,1,1.16-.25,1,1,0,0,1,1.2,1.16v1.76C688.41,421.76,688.52,421.88,688.72,422Zm-.71-.7v-1h-.64c-.74,0-1.15.29-1.15.87a.71.71,0,0,0,.77.78A1.08,1.08,0,0,0,688,421.26Z" transform="translate(-478.65 -386.8)"/><path d="M689.85,421.55V417l.41,0v4.57c0,.24.09.36.29.36a.6.6,0,0,0,.25,0l.11.3a1,1,0,0,1-.42.1A.61.61,0,0,1,689.85,421.55Z" transform="translate(-478.65 -386.8)"/><path d="M668,428c0,1.58-.77,2.47-2,2.47s-2-.87-2-2.47.81-2.49,2-2.49S668,426.4,668,428Zm-3.47,0c0,1.44.62,2.11,1.51,2.11s1.52-.67,1.52-2.12-.6-2.12-1.52-2.12S664.52,426.57,664.52,428Z" transform="translate(-478.65 -386.8)"/><path d="M671.76,430.42h-.35l0-.65a1.33,1.33,0,0,1-1.2.73,1,1,0,0,1-1-1.12v-2.62h.41v2.58c0,.58.25.83.72.83a1.26,1.26,0,0,0,1.07-.75v-2.65h.41Z" transform="translate(-478.65 -386.8)"/><path d="M675,426.72l-.08.39a1.14,1.14,0,0,0-.32,0c-.51,0-.79.37-1,1.13v2.23h-.41v-3.66h.35l0,.82c.2-.6.53-.9,1-.9A1.4,1.4,0,0,1,675,426.72Z" transform="translate(-478.65 -386.8)"/><path d="M680,429.11h-2l-.42,1.31h-.43l1.6-4.8h.53l1.6,4.8h-.44Zm-.11-.36L679,426l-.9,2.79Z" transform="translate(-478.65 -386.8)"/><path d="M684,427l-.2.27A1.21,1.21,0,0,0,683,427c-.67,0-1.13.52-1.13,1.58s.46,1.53,1.13,1.53a1.32,1.32,0,0,0,.85-.31l.2.27a1.58,1.58,0,0,1-1.05.39c-.94,0-1.55-.69-1.55-1.88s.61-1.93,1.55-1.93A1.47,1.47,0,0,1,684,427Z" transform="translate(-478.65 -386.8)"/><path d="M687.65,427.8v2.62h-.41v-2.56c0-.6-.25-.85-.69-.85a1.37,1.37,0,0,0-1.13.76v2.65H685v-5.16l.41,0v2.15a1.46,1.46,0,0,1,1.21-.69A1,1,0,0,1,687.65,427.8Z" transform="translate(-478.65 -386.8)"/><path d="M689.6,425.44a.3.3,0,1,1-.31-.29A.29.29,0,0,1,689.6,425.44Zm-.1,5h-.41v-3.66h.41Z" transform="translate(-478.65 -386.8)"/><path d="M693.57,428.74h-2.44c0,1,.51,1.41,1.14,1.41a1.53,1.53,0,0,0,1-.36l.19.26a1.81,1.81,0,0,1-1.2.45c-1,0-1.55-.7-1.55-1.88s.57-1.94,1.46-1.94,1.43.69,1.43,1.77C693.59,428.56,693.58,428.67,693.57,428.74Zm-.39-.42c0-.8-.32-1.31-1-1.31s-1,.43-1.05,1.42h2.07Z" transform="translate(-478.65 -386.8)"/><path d="M695.86,430.42h-.5L694,426.75h.45l1.11,3.31,1.09-3.31h.43Z" transform="translate(-478.65 -386.8)"/><path d="M700.49,428.74H698c0,1,.51,1.41,1.14,1.41a1.53,1.53,0,0,0,1-.36l.19.26a1.81,1.81,0,0,1-1.2.45c-1,0-1.55-.7-1.55-1.88s.57-1.94,1.46-1.94,1.43.69,1.43,1.77A2.9,2.9,0,0,1,700.49,428.74Zm-.38-.42c0-.8-.32-1.31-1-1.31s-1,.43-1.05,1.42h2.07Z" transform="translate(-478.65 -386.8)"/><path d="M706.2,427.8v2.62h-.41v-2.56c0-.6-.25-.85-.62-.85s-.75.31-1,.76v2.65h-.41v-2.56c0-.6-.25-.85-.62-.85a1.26,1.26,0,0,0-1,.76v2.65h-.41v-3.66H702l0,.62a1.36,1.36,0,0,1,1.13-.69.88.88,0,0,1,.9.73,1.39,1.39,0,0,1,1.16-.73C705.83,426.68,706.2,427.1,706.2,427.8Z" transform="translate(-478.65 -386.8)"/><path d="M710.23,428.74h-2.44c0,1,.51,1.41,1.14,1.41a1.53,1.53,0,0,0,1-.36l.19.26a1.81,1.81,0,0,1-1.2.45c-1,0-1.55-.7-1.55-1.88s.57-1.94,1.46-1.94,1.43.69,1.43,1.77A2.9,2.9,0,0,1,710.23,428.74Zm-.38-.42c0-.8-.32-1.31-1-1.31s-1,.43-1.05,1.42h2.07Z" transform="translate(-478.65 -386.8)"/><path d="M714,427.8v2.62h-.41v-2.56c0-.6-.25-.85-.69-.85a1.38,1.38,0,0,0-1.13.76v2.65h-.41v-3.66h.35l0,.62a1.49,1.49,0,0,1,1.23-.7C713.69,426.68,714,427.09,714,427.8Z" transform="translate(-478.65 -386.8)"/><path d="M717.16,430.26a1.37,1.37,0,0,1-.77.23.85.85,0,0,1-.9-1v-2.44h-.62v-.33h.62v-.87l.41,0v.92h.95l0,.33h-.9v2.42c0,.43.17.64.54.64A1,1,0,0,0,717,430Z" transform="translate(-478.65 -386.8)"/><path d="M876.5,388c0,.92-.52,1.51-2.08,3.15h2.21l-.06.36h-2.63v-.34c1.73-1.84,2.14-2.33,2.14-3.15a.84.84,0,0,0-.88-.9,1.26,1.26,0,0,0-1,.53l-.29-.21a1.64,1.64,0,0,1,1.34-.67A1.19,1.19,0,0,1,876.5,388Z" transform="translate(-478.65 -386.8)"/><path d="M880.39,389.21c0,1.58-.51,2.4-1.46,2.4s-1.46-.83-1.46-2.41.5-2.4,1.46-2.4S880.39,387.63,880.39,389.21Zm-2.51,0c0,1.44.37,2.07,1,2.07s1-.63,1-2.07-.36-2.07-1-2.07S877.88,387.77,877.88,389.2Z" transform="translate(-478.65 -386.8)"/><path d="M883.7,388c0,.92-.52,1.51-2.08,3.15h2.21l-.06.36h-2.63v-.34c1.73-1.84,2.14-2.33,2.14-3.15a.84.84,0,0,0-.88-.9,1.26,1.26,0,0,0-1,.53l-.29-.21a1.64,1.64,0,0,1,1.34-.67A1.19,1.19,0,0,1,883.7,388Z" transform="translate(-478.65 -386.8)"/><path d="M887.59,389.21c0,1.58-.51,2.4-1.46,2.4s-1.46-.83-1.46-2.41.5-2.4,1.46-2.4S887.59,387.63,887.59,389.21Zm-2.51,0c0,1.44.37,2.07,1,2.07s1-.63,1-2.07-.36-2.07-1-2.07S885.08,387.77,885.08,389.2Z" transform="translate(-478.65 -386.8)"/><path d="M744.76,388c0,.92-.52,1.51-2.08,3.15h2.21l-.06.36H742.2v-.34c1.73-1.84,2.14-2.33,2.14-3.15a.84.84,0,0,0-.88-.9,1.26,1.26,0,0,0-1,.53l-.29-.21a1.64,1.64,0,0,1,1.34-.67A1.19,1.19,0,0,1,744.76,388Z" transform="translate(-478.65 -386.8)"/><path d="M748.64,389.21c0,1.58-.51,2.4-1.46,2.4s-1.46-.83-1.46-2.41.5-2.4,1.46-2.4S748.64,387.63,748.64,389.21Zm-2.51,0c0,1.44.37,2.07,1,2.07s1-.63,1-2.07-.36-2.07-1-2.07S746.14,387.77,746.14,389.2Z" transform="translate(-478.65 -386.8)"/><path d="M751.08,391.53h-.41v-4.21l-1.15.71-.19-.3,1.39-.86h.35Z" transform="translate(-478.65 -386.8)"/><path d="M755.13,388.68c0,1.84-.8,2.52-2.34,3l-.1-.31c1.22-.37,2-1,2-2.21a1.33,1.33,0,0,1-1.14.65,1.31,1.31,0,0,1-1.27-1.47,1.4,1.4,0,0,1,1.42-1.53C754.68,386.8,755.13,387.52,755.13,388.68Zm-.41.08c0-1.1-.29-1.62-1-1.62s-1,.43-1,1.2.36,1.13.92,1.13A1.27,1.27,0,0,0,754.71,388.76Z" transform="translate(-478.65 -386.8)"/><path d="M612,388c0,.92-.52,1.51-2.08,3.15h2.21l-.06.36h-2.63v-.34c1.73-1.84,2.14-2.33,2.14-3.15a.84.84,0,0,0-.88-.9,1.26,1.26,0,0,0-1,.53l-.29-.21a1.64,1.64,0,0,1,1.34-.67A1.19,1.19,0,0,1,612,388Z" transform="translate(-478.65 -386.8)"/><path d="M615.9,389.21c0,1.58-.51,2.4-1.46,2.4s-1.46-.83-1.46-2.41.5-2.4,1.46-2.4S615.9,387.63,615.9,389.21Zm-2.51,0c0,1.44.37,2.07,1,2.07s1-.63,1-2.07-.36-2.07-1-2.07S613.39,387.77,613.39,389.2Z" transform="translate(-478.65 -386.8)"/><path d="M618.34,391.53h-.41v-4.21l-1.15.71-.19-.3,1.39-.86h.35Z" transform="translate(-478.65 -386.8)"/><path d="M622.58,390.32a1.35,1.35,0,0,1-1.53,1.29,1.33,1.33,0,0,1-1.5-1.28,1.34,1.34,0,0,1,1-1.29,1.11,1.11,0,0,1-.8-1.08,1.32,1.32,0,0,1,2.63,0c0,.5-.27.82-.85,1.11C622.24,389.35,622.58,389.7,622.58,390.32Zm-.43,0c0-.57-.3-.8-1-1.07l-.24-.09a1.17,1.17,0,0,0-.9,1.17c0,.61.43.94,1.08.94S622.15,390.92,622.15,390.32ZM621,388.87l.22.08c.51-.27.74-.55.74-1a.91.91,0,0,0-1.81,0C620.16,388.42,620.4,388.64,621,388.87Z" transform="translate(-478.65 -386.8)"/><path d="M481.27,388c0,.92-.52,1.51-2.08,3.15h2.21l-.06.36h-2.63v-.34c1.73-1.84,2.14-2.33,2.14-3.15a.84.84,0,0,0-.88-.9,1.26,1.26,0,0,0-1,.53l-.29-.21a1.64,1.64,0,0,1,1.34-.67A1.19,1.19,0,0,1,481.27,388Z" transform="translate(-478.65 -386.8)"/><path d="M485.16,389.21c0,1.58-.51,2.4-1.46,2.4s-1.46-.83-1.46-2.41.5-2.4,1.46-2.4S485.16,387.63,485.16,389.21Zm-2.51,0c0,1.44.37,2.07,1,2.07s1-.63,1-2.07-.36-2.07-1-2.07S482.65,387.77,482.65,389.2Z" transform="translate(-478.65 -386.8)"/><path d="M487.59,391.53h-.41v-4.21L486,388l-.19-.3,1.39-.86h.35Z" transform="translate(-478.65 -386.8)"/><path d="M491.25,387.19l-1.83,4.4-.38-.13,1.79-4.24h-2.18v-.34h2.6Z" transform="translate(-478.65 -386.8)"/></svg>